<svg width="56.699999999999996" height="56.699999999999996" xmlns="http://www.w3.org/2000/svg">

 <g>
  <title>background</title>
  <rect fill="none" id="canvas_background" height="402" width="582" y="-1" x="-1"/>
 </g>
 <g>
  <title>Layer 1</title>
  <path fill="#666666" id="svg_2" d="m28.200001,16.700001c-7,0 -12.800001,5.699999 -12.800001,12.799999s5.700001,12.799999 12.800001,12.799999s12.799999,-5.799999 12.799999,-12.799999s-5.799999,-12.799999 -12.799999,-12.799999zm0,21c-4.5,0 -8.200001,-3.700001 -8.200001,-8.200001s3.700001,-8.200001 8.200001,-8.200001s8.200001,3.700001 8.200001,8.200001s-3.700001,8.200001 -8.200001,8.200001z"/>
  <circle fill="#666666" id="svg_3" r="2.9" cy="16.4" cx="41.5"/>
  <path fill="#666666" id="svg_4" d="m48.921612,8.9c-2.599998,-2.7 -6.299999,-4.099999 -10.5,-4.099999l-20.599998,0c-8.7,0 -14.5,5.8 -14.5,14.499999l0,20.5c0,4.299999 1.4,8 4.2,10.700001c2.700001,2.599998 6.3,3.900002 10.400001,3.900002l20.4,0c4.299999,0 7.899998,-1.400002 10.5,-3.900002c2.699997,-2.599998 4.099998,-6.299999 4.099998,-10.599998l0,-20.600002c0,-4.199999 -1.400002,-7.799999 -4,-10.4zm-0.400002,31.000002c0,3.099998 -1.099998,5.599998 -2.899998,7.299999s-4.299999,2.599998 -7.299999,2.599998l-20.4,0c-3,0 -5.5,-0.899998 -7.3,-2.599998c-1.8,-1.799999 -2.7,-4.299999 -2.7,-7.400002l0,-20.5c0,-3 0.9,-5.499999 2.7,-7.299999c1.7,-1.7 4.3,-2.6 7.3,-2.6l20.599997,0c3,0 5.5,0.900001 7.300003,2.700001c1.699997,1.799999 2.699997,4.299999 2.699997,7.199999l0,20.600002l0,0z"/>
 </g>
</svg>